<?xml version="1.0" standalone="no"?>
<svg viewBox="0 0 200 200" xmlns="http://www.w3.org/2000/svg">
  <path fill="#FDB721" d="M38.7,-69.5C48.6,-61.3,54.1,-47.8,60.2,-35.4C66.4,-22.9,73.1,-11.5,74.1,0.6C75.1,12.6,70.4,25.3,64.5,38.1C58.6,51,51.6,64,40.6,73.9C29.7,83.8,14.8,90.4,2.6,85.9C-9.6,81.3,-19.2,65.5,-32.3,56.9C-45.4,48.3,-62,46.9,-68.6,38.6C-75.2,30.3,-71.8,15.1,-67.7,2.4C-63.6,-10.4,-58.9,-20.9,-53.8,-31.8C-48.8,-42.7,-43.3,-54.2,-34.3,-62.9C-25.3,-71.6,-12.6,-77.6,0.9,-79.1C14.4,-80.6,28.8,-77.7,38.7,-69.5Z" transform="translate(100 100)" />
</svg>
